<?xml version="1.0" encoding="utf-8"?>
<!-- Generator: Adobe Illustrator 26.2.1, SVG Export Plug-In . SVG Version: 6.00 Build 0)  -->
<svg version="1.1" xmlns="http://www.w3.org/2000/svg" xmlns:xlink="http://www.w3.org/1999/xlink" x="0px" y="0px"
	 viewBox="0 0 600 600" style="enable-background:new 0 0 600 600;" xml:space="preserve">
<style type="text/css">
	.st0{display:none;}
	.st1{display:inline;stroke:#FFFFFF;stroke-miterlimit:10;}
	.st2{fill:#FFFFFF;}
	.st3{font-family:'KhmerMN';}
	.st4{font-size:178.3085px;}
	.st5{font-size:210.845px;}
	.st6{font-size:211.887px;}
	.st7{display:inline;}
</style>
<g id="Layer_1" class="st0">
	<rect class="st1" width="600" height="600"/>
</g>
<g id="SAV_Logo">
	<g>
		<text transform="matrix(1.5426 0 0 1 95.3538 352.8965)" class="st2 st3 st4">S</text>
		<text transform="matrix(-1.554355e-02 -0.9999 0.9999 -1.554126e-02 358.1697 367.6433)" class="st2 st3 st5">A</text>
		<text transform="matrix(1.961531e-08 -1 1 1.961531e-08 504.6461 367.6496)" class="st2 st3 st6">V</text>
	</g>
</g>
<g id="WC_design" class="st0">
	<g class="st7">
		<g>
			<path class="st2" d="M63.9,239.4c-11-0.3-21.8,6.2-26.2,16.3c-2.3,5.3-2.9,11-1.9,16.7c1,5.4,3.8,10.3,7.5,14.4
				c4.2,4.6,9.5,8.1,14.9,11.1c2.8,1.6,5.3-2.8,2.5-4.3c-8.1-4.5-16.7-10.5-19.5-19.8c-2.7-9.1,0.4-19.4,8.2-25
				c4.2-3,9.2-4.6,14.4-4.4C67.1,244.5,67.1,239.5,63.9,239.4L63.9,239.4z"/>
		</g>
	</g>
	<g class="st7">
		<g>
			<path class="st2" d="M65.9,243.5c10.6,0.9,18.1,9.9,20.7,19.6c1.4,5.1,2.1,11-0.2,15.9c-2,4.3-5.7,7.5-9.7,9.7
				c-5.7,3.1-12.2,4.3-18.5,5.4c-1.3,0.3-2.1,1.8-1.7,3.1c0.4,1.4,1.7,2,3.1,1.7c11.5-2.2,24.9-5.3,30.9-16.6c3.1-5.9,3-12.7,1.5-19
				c-1.4-5.9-4.1-11.6-8.3-16.1c-4.6-5-10.9-8.2-17.7-8.8c-1.3-0.1-2.5,1.2-2.5,2.5C63.4,242.4,64.6,243.4,65.9,243.5L65.9,243.5z"
				/>
		</g>
	</g>
	<g class="st7">
		<g>
			<path class="st2" d="M61.6,239c-2.7-4.1-5.2-8.3-7.3-12.7c-0.1-0.3-0.7-1.8-0.8-1.8c-1,0.6-1.1,0.9-0.4,0.7c0.3,0,0.7,0,1,0
				c0.7,0,1.3,0,2,0c2.6,0,5.2-0.1,7.9,0s5.2,0.1,7.9,0.2c0.7,0,1.3,0.1,2,0.1c0,0,1.2,0.1,1.2,0.1c0.3,0.1,0.1-0.1-0.4-0.7
				c0.1,0.1,0,0.3-0.1,0.4c-0.2,0.3-0.4,0.8-0.6,1.2c-2.4,4.1-5.2,7.9-8.3,11.5c-0.9,1-1,2.5,0,3.5c0.9,0.9,2.6,1,3.5,0
				c3.1-3.6,6-7.5,8.5-11.6c1.2-2,2.6-4.3,1.6-6.7c-1.1-2.5-3.6-2.7-6-2.8c-5.2-0.2-10.3-0.3-15.5-0.3c-1.2,0-2.5,0-3.7,0.1
				c-1.4,0-2.9,0-4,0.9c-2,1.5-1.7,4.1-0.8,6.2c2.2,5,5,9.7,8,14.2C59,244.2,63.4,241.7,61.6,239L61.6,239z"/>
		</g>
	</g>
	<g class="st7">
		<g>
			<path class="st2" d="M36.1,191.2c2.1,4.6,4.2,9.1,6.5,13.6c1.1,2.2,2.2,4.3,3.3,6.5c1,1.9,1.9,4.7,3.8,5.9
				c2.2,1.4,4.5,0.2,5.9-1.7c1.3-1.8,2.1-4.1,3-6.2c2.1-4.7,4.3-9.3,6.4-14c-1.5-0.2-3-0.4-4.6-0.6c2.8,7.4,6.3,14.6,10.3,21.5
				c0.9,1.6,3.4,1.7,4.3,0c5.2-9.3,10.2-18.6,15-28.1c1.4-2.9-2.9-5.4-4.3-2.5c-4.8,9.5-9.8,18.9-15,28.1c1.4,0,2.9,0,4.3,0
				c-3.9-6.5-7.2-13.2-9.8-20.3c-0.4-0.9-1-1.7-2.1-1.8c-0.9-0.1-2.1,0.3-2.5,1.2c-1.9,4.1-3.7,8.1-5.6,12.2c-0.9,2-1.8,3.9-2.7,5.9
				c-0.3,0.6-0.7,1.2-1,1.9c-0.3,0.3-0.3,0.3,0.1,0.1c0.8,0.4,1.1,0.5,0.9,0.1c0.1-0.2-0.5-1-0.6-1.2c-4-7.6-7.8-15.2-11.4-23.1
				c-0.6-1.2-2.3-1.5-3.4-0.9C35.8,188.5,35.6,190,36.1,191.2L36.1,191.2z"/>
		</g>
	</g>
</g>
</svg>
